<mxfile host="65bd71144e">
    <diagram id="Yy0BVrx9NGWI1QVyhBw9" name="第 1 页">
        <mxGraphModel dx="998" dy="575" grid="0" gridSize="10" guides="1" tooltips="1" connect="1" arrows="1" fold="1" page="1" pageScale="1" pageWidth="827" pageHeight="1169" background="none" math="0" shadow="1">
            <root>
                <mxCell id="0"/>
                <mxCell id="1" parent="0"/>
                <mxCell id="2" value="" style="shape=partialRectangle;whiteSpace=wrap;html=1;top=0;bottom=0;fillColor=none;" vertex="1" parent="1">
                    <mxGeometry x="210" y="50" width="120" height="470" as="geometry"/>
                </mxCell>
                <mxCell id="11" value="请求1" style="edgeStyle=none;html=1;exitX=0;exitY=0;exitDx=0;exitDy=0;entryX=1.003;entryY=0.081;entryDx=0;entryDy=0;entryPerimeter=0;fillColor=#6a00ff;strokeColor=#3700CC;" edge="1" parent="1">
                    <mxGeometry relative="1" as="geometry">
                        <mxPoint x="210" y="113.00000000000011" as="sourcePoint"/>
                        <mxPoint x="330.36" y="137.3" as="targetPoint"/>
                    </mxGeometry>
                </mxCell>
                <mxCell id="12" value="返回1" style="edgeStyle=none;html=1;exitX=1.003;exitY=0.081;exitDx=0;exitDy=0;fillColor=#6a00ff;strokeColor=#3700CC;exitPerimeter=0;" edge="1" parent="1">
                    <mxGeometry relative="1" as="geometry">
                        <mxPoint x="330.36" y="149.3" as="sourcePoint"/>
                        <mxPoint x="210" y="185" as="targetPoint"/>
                    </mxGeometry>
                </mxCell>
                <mxCell id="14" value="TCP 四次挥手" style="html=1;shadow=0;dashed=0;align=center;verticalAlign=middle;shape=mxgraph.arrows2.twoWayArrow;dy=0.65;dx=22;fillColor=#e51400;fontColor=#ffffff;strokeColor=#B20000;" vertex="1" parent="1">
                    <mxGeometry x="220" y="190" width="100" height="60" as="geometry"/>
                </mxCell>
                <mxCell id="15" value="TCP 三次握手" style="html=1;shadow=0;dashed=0;align=center;verticalAlign=middle;shape=mxgraph.arrows2.twoWayArrow;dy=0.65;dx=22;fillColor=#60a917;fontColor=#ffffff;strokeColor=#2D7600;" vertex="1" parent="1">
                    <mxGeometry x="220" y="49" width="100" height="60" as="geometry"/>
                </mxCell>
                <mxCell id="17" value="请求2" style="edgeStyle=none;html=1;exitX=0;exitY=0;exitDx=0;exitDy=0;entryX=1.003;entryY=0.081;entryDx=0;entryDy=0;entryPerimeter=0;fillColor=#6a00ff;strokeColor=#3700CC;" edge="1" parent="1">
                    <mxGeometry relative="1" as="geometry">
                        <mxPoint x="209.45999999999998" y="324.0000000000001" as="sourcePoint"/>
                        <mxPoint x="329.82" y="348.29999999999995" as="targetPoint"/>
                    </mxGeometry>
                </mxCell>
                <mxCell id="18" value="返回2" style="edgeStyle=none;html=1;exitX=1.003;exitY=0.081;exitDx=0;exitDy=0;fillColor=#6a00ff;strokeColor=#3700CC;exitPerimeter=0;" edge="1" parent="1">
                    <mxGeometry relative="1" as="geometry">
                        <mxPoint x="329.82" y="360.29999999999995" as="sourcePoint"/>
                        <mxPoint x="209.45999999999998" y="396" as="targetPoint"/>
                    </mxGeometry>
                </mxCell>
                <mxCell id="19" value="TCP 四次挥手" style="html=1;shadow=0;dashed=0;align=center;verticalAlign=middle;shape=mxgraph.arrows2.twoWayArrow;dy=0.65;dx=22;fillColor=#e51400;fontColor=#ffffff;strokeColor=#B20000;" vertex="1" parent="1">
                    <mxGeometry x="219.45999999999998" y="411" width="100" height="60" as="geometry"/>
                </mxCell>
                <mxCell id="20" value="TCP 三次握手" style="html=1;shadow=0;dashed=0;align=center;verticalAlign=middle;shape=mxgraph.arrows2.twoWayArrow;dy=0.65;dx=22;fillColor=#60a917;fontColor=#ffffff;strokeColor=#2D7600;" vertex="1" parent="1">
                    <mxGeometry x="219.64" y="256" width="100" height="60" as="geometry"/>
                </mxCell>
                <mxCell id="21" value="……" style="text;strokeColor=none;align=center;fillColor=none;html=1;verticalAlign=middle;whiteSpace=wrap;rounded=0;fontSize=23;rotation=90;" vertex="1" parent="1">
                    <mxGeometry x="249.82" y="481" width="60" height="30" as="geometry"/>
                </mxCell>
                <mxCell id="22" value="" style="shape=partialRectangle;whiteSpace=wrap;html=1;top=0;bottom=0;fillColor=none;" vertex="1" parent="1">
                    <mxGeometry x="480.36" y="50" width="120" height="370" as="geometry"/>
                </mxCell>
                <mxCell id="23" value="请求1" style="edgeStyle=none;html=1;exitX=0;exitY=0;exitDx=0;exitDy=0;entryX=1.003;entryY=0.081;entryDx=0;entryDy=0;entryPerimeter=0;fillColor=#6a00ff;strokeColor=#3700CC;" edge="1" parent="1">
                    <mxGeometry relative="1" as="geometry">
                        <mxPoint x="480.36" y="114.00000000000011" as="sourcePoint"/>
                        <mxPoint x="600.7200000000001" y="138.29999999999995" as="targetPoint"/>
                    </mxGeometry>
                </mxCell>
                <mxCell id="24" value="返回1" style="edgeStyle=none;html=1;exitX=1.003;exitY=0.081;exitDx=0;exitDy=0;fillColor=#6a00ff;strokeColor=#3700CC;exitPerimeter=0;" edge="1" parent="1">
                    <mxGeometry relative="1" as="geometry">
                        <mxPoint x="600.7200000000001" y="150.29999999999995" as="sourcePoint"/>
                        <mxPoint x="480.36" y="186" as="targetPoint"/>
                    </mxGeometry>
                </mxCell>
                <mxCell id="26" value="TCP 三次握手" style="html=1;shadow=0;dashed=0;align=center;verticalAlign=middle;shape=mxgraph.arrows2.twoWayArrow;dy=0.65;dx=22;fillColor=#60a917;fontColor=#ffffff;strokeColor=#2D7600;" vertex="1" parent="1">
                    <mxGeometry x="490.36" y="50" width="100" height="60" as="geometry"/>
                </mxCell>
                <mxCell id="27" value="请求2" style="edgeStyle=none;html=1;exitX=0;exitY=0;exitDx=0;exitDy=0;entryX=1.003;entryY=0.081;entryDx=0;entryDy=0;entryPerimeter=0;fillColor=#6a00ff;strokeColor=#3700CC;" edge="1" parent="1">
                    <mxGeometry relative="1" as="geometry">
                        <mxPoint x="479.8199999999999" y="200.0000000000001" as="sourcePoint"/>
                        <mxPoint x="600.1800000000001" y="224.29999999999995" as="targetPoint"/>
                    </mxGeometry>
                </mxCell>
                <mxCell id="28" value="返回2" style="edgeStyle=none;html=1;exitX=1.003;exitY=0.081;exitDx=0;exitDy=0;fillColor=#6a00ff;strokeColor=#3700CC;exitPerimeter=0;" edge="1" parent="1">
                    <mxGeometry relative="1" as="geometry">
                        <mxPoint x="600.1800000000001" y="236.29999999999995" as="sourcePoint"/>
                        <mxPoint x="479.8199999999999" y="272" as="targetPoint"/>
                    </mxGeometry>
                </mxCell>
                <mxCell id="29" value="TCP 四次挥手" style="html=1;shadow=0;dashed=0;align=center;verticalAlign=middle;shape=mxgraph.arrows2.twoWayArrow;dy=0.65;dx=22;fillColor=#e51400;fontColor=#ffffff;strokeColor=#B20000;" vertex="1" parent="1">
                    <mxGeometry x="490.36" y="349" width="100" height="60" as="geometry"/>
                </mxCell>
                <mxCell id="31" value="……" style="text;strokeColor=none;align=center;fillColor=none;html=1;verticalAlign=middle;whiteSpace=wrap;rounded=0;fontSize=23;rotation=90;" vertex="1" parent="1">
                    <mxGeometry x="510.36" y="289" width="60" height="30" as="geometry"/>
                </mxCell>
            </root>
        </mxGraphModel>
    </diagram>
</mxfile>